<svg xmlns="http://www.w3.org/2000/svg" width="20" height="20" fill="none" viewBox="0 0 20 20"><path fill="currentColor" fill-rule="evenodd" d="M17 3H3v14h14zm-2.897 8.985c1.234.5 1.65 1.037 1.753 1.676.098.55-.024.906-.043.96-.455 1.556-2.993 1.607-4.007.578q-.045-.052-.088-.098c-.165-.184-.279-.31-.388-.55l.542-.312.52-.302c.286.438.55.68 1.023.778.643.078 1.29-.143 1.145-.825-.087-.324-.516-.505-1.015-.717-.363-.153-.762-.322-1.096-.573-.807-.542-.996-1.858-.333-2.61.221-.278.598-.486.993-.585l.205-.027.207-.027c.792-.016 1.287.193 1.65.6.102.102.184.212.339.452l-.216.137c-.231.147-.33.21-.809.52a.98.98 0 0 0-.57-.528c-.351-.107-.794.01-.886.38-.032.115-.025.221.025.41.116.263.45.406.801.555q.125.052.248.108m-4.8-2.551h1.31v1.204q.005 1.201 0 2.401 0 .164.003.321c.01.609.019 1.162-.235 1.63-.207.42-.6.695-1.057.828-.701.16-1.372.069-1.871-.23a2.1 2.1 0 0 1-.772-.884l.532-.326.533-.326a.5.5 0 0 1 .062.099l.012.02c.136.228.253.39.483.502.227.078.723.127.915-.271.093-.162.088-.614.082-1.156l-.002-.427q0-.847.002-1.692.003-.845.003-1.693" clip-rule="evenodd"/></svg>