<svg xmlns="http://www.w3.org/2000/svg" width="20" height="20" fill="none" viewBox="0 0 20 20"><path fill="currentColor" fill-rule="evenodd" d="M20 10.206c0 2.874-4.477 5.205-10 5.205S0 13.08 0 10.206 4.477 5 10 5s10 2.33 10 5.206M3.905 7.74l-1.096 5.548H4.11l.274-1.438h1.233c1.164.068 2.465-.89 2.465-2.535 0-.959-.547-1.506-1.643-1.575zM5 8.767l-.342 2.055h.822c.616-.068 1.164-.274 1.233-1.438 0-.411-.343-.617-.822-.617zm3.924-2.465L7.828 11.85h1.301l.617-3.083h1.027c.48 0 .48.206.411.548l-.48 2.535h1.37l.48-2.809c.137-.685-.274-1.232-1.37-1.301H9.951l.274-1.438zm4.159 1.438-1.096 5.548h1.301l.274-1.438h1.233c1.164.068 2.466-.89 2.466-2.535 0-.959-.548-1.506-1.644-1.575zm1.095 1.027-.342 2.055h.822c.616-.068 1.164-.274 1.233-1.438 0-.411-.343-.617-.822-.617z" clip-rule="evenodd"/></svg>